# xmcd
# Copyright (C) 1995-1998 Ti Kan
#
# Track frame offsets:
#       150
#       15258
#       36132
#       53307
#       71022
#       88460
#       105019
#       120258
#       135158
#       152343
#       168405
#       183091
#       207120
#       223136
#       238364
#       256532
#
# Disc length: 3672 seconds
#
# Revision: 14
# Processed by: cddbd v1.5.1PL0 Copyright (c) Steve Scherf et al.
# Submitted via: CD-Transfer v1.0
#
DISCID=bc0e5610
DTITLE=Prodigy - Euro Express 575
DYEAR=04
DGENRE=
TTITLE0=Lsf
TTITLE1=Bedshaped
TTITLE2=Millionare
TTITLE3=Shining
TTITLE4=This Love (Acoustic Vers.)
TTITLE5=This Love (Kanye West Rmx)
TTITLE6=Driffting Out Of Sight
TTITLE7=Sunshowers
TTITLE8=My Place
TTITLE9=So Lonely
TTITLE10=Talk Talk Talk
TTITLE11=U Saved Me (Radio Edit)
TTITLE12=Your Eyes
TTITLE13=Days That Are Over (Short Michael Brauer Edit)
TTITLE14=Things Will Go My Way
TTITLE15=Girl
EXTD=
EXTT0=
EXTT1=
EXTT2=
EXTT3=
EXTT4=
EXTT5=
EXTT6=
EXTT7=
EXTT8=
EXTT9=
EXTT10=
EXTT11=
EXTT12=
EXTT13=
EXTT14=
EXTT15=
PLAYORDER=
